<svg width="310" height="285" viewBox="0 0 310 285" fill="none" xmlns="http://www.w3.org/2000/svg">
<path fill-rule="evenodd" clip-rule="evenodd" d="M270.118 246.847C288.378 230.109 295 200.199 295 142.5C295 102.792 291.864 76.2457 283.957 58.0957C283.835 58.2861 283.673 58.5374 283.472 58.8462C282.982 59.6003 282.262 60.6975 281.325 62.0887C279.453 64.8707 276.716 68.8317 273.24 73.5789C266.294 83.0648 256.364 95.7334 244.444 108.423C232.541 121.095 218.541 133.909 203.441 143.585C202.983 143.878 202.525 144.168 202.065 144.456C221.911 162.725 241.329 182.19 256.227 197.569C264.457 206.064 271.319 213.324 276.124 218.462C278.527 221.031 280.417 223.07 281.707 224.468C282.352 225.167 282.848 225.706 283.183 226.072C283.35 226.254 283.477 226.393 283.563 226.487L283.66 226.594L283.686 226.621L283.692 226.628L283.694 226.63C283.694 226.631 283.695 226.631 280 230L277.832 231.977C276.305 233.369 276.305 233.369 276.305 233.369L276.304 233.367L276.299 233.361L276.276 233.337L276.183 233.235L276.072 233.113C276.001 233.036 275.914 232.942 275.812 232.83C275.484 232.472 274.996 231.941 274.358 231.249C273.082 229.866 271.208 227.844 268.821 225.293C264.048 220.19 257.227 212.973 249.044 204.527C233.626 188.61 213.408 168.365 192.958 149.672C180.849 155.962 168.022 160 155 160C141.978 160 129.151 155.962 117.042 149.672C96.5921 168.365 76.3746 188.61 60.9558 204.527C52.7728 212.973 45.9521 220.19 41.1789 225.293C38.7925 227.844 36.9185 229.866 35.6424 231.249C35.0044 231.941 34.516 232.472 34.1878 232.83C34.0237 233.009 33.8996 233.145 33.817 233.235L33.7243 233.337L33.7016 233.361L33.6961 233.367L33.6949 233.369C33.6947 233.369 33.6947 233.369 30.0001 230C26.3055 226.631 26.3058 226.631 26.3063 226.63L26.308 226.628L26.3146 226.621L26.3397 226.594L26.4372 226.487C26.523 226.393 26.6503 226.254 26.8177 226.072C27.1525 225.706 27.6478 225.167 28.293 224.468C29.5832 223.07 31.4728 221.031 33.8759 218.462C38.6817 213.324 45.5432 206.064 53.7734 197.569C68.6714 182.19 88.0891 162.725 107.935 144.456C107.475 144.168 107.017 143.878 106.559 143.585C91.4586 133.909 77.4587 121.095 65.5562 108.423C53.6361 95.7334 43.7056 83.0648 36.7598 73.5789C33.2837 68.8317 30.5472 64.8707 28.6747 62.0887C27.7383 60.6975 27.0175 59.6003 26.5278 58.8462C26.3273 58.5374 26.1655 58.2861 26.0435 58.0956C18.1362 76.2457 15 102.792 15 142.5C15 200.199 21.622 230.109 39.8822 246.847C48.994 255.2 61.8879 261.086 80.7677 264.819C99.7128 268.565 123.93 270 155 270C186.07 270 210.287 268.565 229.232 264.819C248.112 261.086 261.006 255.2 270.118 246.847ZM270.118 38.1528C275.616 43.1928 280.059 49.4268 283.584 57.2541C283.021 56.8993 281.968 56.2371 280 55C275.767 52.3388 275.767 52.3383 275.767 52.3381L275.766 52.3397L275.76 52.3496L275.731 52.3964C275.703 52.4394 275.661 52.5061 275.604 52.5955C275.49 52.7744 275.316 53.0446 275.085 53.3999C274.624 54.1107 273.933 55.1619 273.029 56.5051C271.221 59.1918 268.56 63.0434 265.172 67.6711C258.388 76.9353 248.719 89.2666 237.155 101.577C225.574 113.906 212.207 126.091 198.046 135.165C183.849 144.262 169.216 150 155 150C140.785 150 126.151 144.262 111.954 135.165C97.7926 126.091 84.4257 113.906 72.8448 101.577C61.2814 89.2666 51.6116 76.9353 44.8281 67.6711C41.4395 63.0434 38.779 59.1918 36.9707 56.5051C36.0667 55.1619 35.3762 54.1107 34.9146 53.3999C34.6838 53.0446 34.5104 52.7744 34.3961 52.5955C34.339 52.5061 34.2966 52.4394 34.2694 52.3964L34.2398 52.3496L34.2335 52.3397L34.2325 52.3381C34.2326 52.3383 34.233 52.3388 30 55C28.0323 56.2371 26.9795 56.8994 26.4163 57.2541C29.9411 49.4269 34.3841 43.1928 39.8822 38.1528C48.994 29.8003 61.8879 23.914 80.7677 20.1812C99.7128 16.4355 123.93 15 155 15C186.07 15 210.287 16.4355 229.232 20.1812C248.112 23.914 261.006 29.8003 270.118 38.1528ZM155 280C280 280 305 257.083 305 142.5C305 27.9167 280 5 155 5C30 5 5 27.9167 5 142.5C5 257.083 30 280 155 280Z" fill="black"/>
<path d="M270.118 246.847L273.496 250.533L273.496 250.533L270.118 246.847ZM283.957 58.0957L288.54 56.0986L284.799 47.511L279.746 55.3986L283.957 58.0957ZM283.472 58.8462L287.666 61.5694L287.666 61.5692L283.472 58.8462ZM281.325 62.0887L285.473 64.8806L285.473 64.8806L281.325 62.0887ZM273.24 73.5789L269.206 70.625L269.206 70.625L273.24 73.5789ZM244.444 108.423L240.8 105L240.8 105L244.444 108.423ZM203.441 143.585L206.138 147.795L206.138 147.795L203.441 143.585ZM202.065 144.456L199.414 140.216L193.854 143.693L198.678 148.134L202.065 144.456ZM256.227 197.569L252.636 201.048L252.636 201.048L256.227 197.569ZM276.124 218.462L279.776 215.046L279.776 215.046L276.124 218.462ZM281.707 224.468L285.382 221.078L285.382 221.078L281.707 224.468ZM283.183 226.072L279.498 229.451L279.498 229.451L283.183 226.072ZM283.563 226.487L287.254 223.114L287.253 223.113L283.563 226.487ZM283.66 226.594L287.353 223.223L287.351 223.221L283.66 226.594ZM283.686 226.621L279.993 229.992L279.994 229.993L283.686 226.621ZM283.692 226.628L280 230L280.003 230.003L283.692 226.628ZM283.694 226.63L287.443 223.322L287.413 223.289L287.383 223.256L283.694 226.63ZM280 230L283.369 233.695L283.369 233.695L280 230ZM277.832 231.977L281.201 235.672L281.201 235.672L277.832 231.977ZM276.305 233.369L280.21 230.245L280.102 230.111L279.986 229.984L276.305 233.369ZM276.304 233.367L272.616 236.743L272.624 236.752L276.304 233.367ZM276.299 233.361L272.605 236.732L272.61 236.737L276.299 233.361ZM276.276 233.337L279.969 229.966L279.967 229.964L276.276 233.337ZM276.183 233.235L279.874 229.862L279.872 229.86L276.183 233.235ZM276.072 233.113L279.761 229.738L279.76 229.737L276.072 233.113ZM275.812 232.83L272.127 236.21L272.127 236.21L275.812 232.83ZM274.358 231.249L278.033 227.859L278.033 227.859L274.358 231.249ZM268.821 225.293L272.473 221.877L272.473 221.877L268.821 225.293ZM249.044 204.527L245.453 208.005L245.453 208.005L249.044 204.527ZM192.958 149.672L196.332 145.982L193.753 143.625L190.653 145.235L192.958 149.672ZM117.042 149.672L119.347 145.235L116.247 143.625L113.668 145.982L117.042 149.672ZM60.9558 204.527L57.3646 201.048L57.3646 201.048L60.9558 204.527ZM41.1789 225.293L44.8305 228.708L44.8305 228.708L41.1789 225.293ZM35.6424 231.249L31.9677 227.859L31.9677 227.859L35.6424 231.249ZM34.1878 232.83L30.5027 229.451L30.5027 229.451L34.1878 232.83ZM33.817 233.235L30.1273 229.861L30.126 229.862L33.817 233.235ZM33.7243 233.337L30.0333 229.964L30.0319 229.965L33.7243 233.337ZM33.7016 233.361L30.0091 229.99L30.0083 229.991L33.7016 233.361ZM33.6961 233.367L30.0029 229.997L29.9945 230.006L33.6961 233.367ZM33.6949 233.369L37.3589 236.771L37.3778 236.751L37.3966 236.73L33.6949 233.369ZM26.3063 226.63L29.9473 230.057L29.9789 230.024L30.0099 229.989L26.3063 226.63ZM26.308 226.628L22.6122 223.261L22.6044 223.269L26.308 226.628ZM26.3146 226.621L22.6218 223.25L22.6188 223.253L26.3146 226.621ZM26.3397 226.594L22.649 223.22L22.6469 223.223L26.3397 226.594ZM26.4372 226.487L22.7471 223.113L22.7465 223.114L26.4372 226.487ZM26.8177 226.072L23.1327 222.692L23.1325 222.692L26.8177 226.072ZM28.293 224.468L31.9677 227.859L31.9677 227.859L28.293 224.468ZM33.8759 218.462L37.5274 221.877L37.5274 221.877L33.8759 218.462ZM53.7734 197.569L50.1822 194.09L50.1822 194.09L53.7734 197.569ZM107.935 144.456L111.322 148.135L116.146 143.693L110.586 140.216L107.935 144.456ZM106.559 143.585L109.257 139.375L109.257 139.375L106.559 143.585ZM65.5562 108.423L69.2005 105L69.2005 105L65.5562 108.423ZM36.7598 73.5789L40.7939 70.625L40.7939 70.625L36.7598 73.5789ZM28.6747 62.0887L32.8227 59.2969L32.8227 59.2969L28.6747 62.0887ZM26.5278 58.8462L22.3344 61.5693L22.3344 61.5694L26.5278 58.8462ZM26.0435 58.0956L30.2537 55.3986L25.201 47.5109L21.4596 56.0986L26.0435 58.0956ZM39.8822 246.847L43.2609 243.161L43.2609 243.161L39.8822 246.847ZM80.7677 264.819L79.7979 269.724L79.7979 269.724L80.7677 264.819ZM229.232 264.819L230.202 269.724L230.202 269.724L229.232 264.819ZM283.584 57.2541L280.919 61.4848L294.953 70.3241L288.143 55.201L283.584 57.2541ZM270.118 38.1528L273.496 34.467L273.496 34.467L270.118 38.1528ZM280 55L277.339 59.233L277.339 59.233L280 55ZM275.767 52.3381L279.977 55.0357L271.79 49.3079L275.767 52.3381ZM275.766 52.3397L271.557 49.6421L271.546 49.6586L271.536 49.6751L275.766 52.3397ZM275.76 52.3496L279.986 55.0219L279.991 55.0142L275.76 52.3496ZM275.731 52.3964L279.954 55.0736L279.957 55.0687L275.731 52.3964ZM275.604 52.5955L271.39 49.9041L271.39 49.9041L275.604 52.5955ZM275.085 53.3999L270.892 50.6767L270.892 50.6768L275.085 53.3999ZM273.029 56.5051L268.881 53.7132L268.881 53.7132L273.029 56.5051ZM265.172 67.6711L269.206 70.625L269.206 70.625L265.172 67.6711ZM237.155 101.577L233.511 98.1535L233.511 98.1535L237.155 101.577ZM198.046 135.165L195.348 130.955L195.348 130.955L198.046 135.165ZM111.954 135.165L109.257 139.375L109.257 139.375L111.954 135.165ZM72.8448 101.577L76.4892 98.1535L76.4892 98.1535L72.8448 101.577ZM44.8281 67.6711L40.7939 70.625L40.7939 70.625L44.8281 67.6711ZM36.9707 56.5051L41.1187 53.7132L41.1187 53.7132L36.9707 56.5051ZM34.9146 53.3999L39.108 50.6768L39.108 50.6768L34.9146 53.3999ZM34.3961 52.5955L30.1822 55.2869L30.1823 55.2869L34.3961 52.5955ZM34.2694 52.3964L30.0436 55.0691L30.0458 55.0726L34.2694 52.3964ZM34.2398 52.3496L30.0104 55.0165L30.0141 55.0223L34.2398 52.3496ZM34.2335 52.3397L30.0028 55.0045L30.0042 55.0066L34.2335 52.3397ZM34.2325 52.3381L38.4633 49.6734L29.9812 54.9699L34.2325 52.3381ZM30 55L32.6612 59.233L32.6612 59.233L30 55ZM26.4163 57.2541L21.8572 55.201L15.0469 70.3241L29.081 61.4849L26.4163 57.2541ZM39.8822 38.1528L36.5036 34.467L39.8822 38.1528ZM80.7677 20.1812L79.7979 15.2761L79.7979 15.2761L80.7677 20.1812ZM229.232 20.1812L230.202 15.2761L230.202 15.2761L229.232 20.1812ZM290 142.5C290 171.23 288.344 192.675 284.539 208.892C280.753 225.025 274.913 235.669 266.739 243.161L273.496 250.533C283.583 241.287 290.184 228.607 294.274 211.176C298.345 193.828 300 171.469 300 142.5H290ZM279.373 60.0927C286.833 77.2161 290 102.846 290 142.5H300C300 102.738 296.895 75.2753 288.54 56.0986L279.373 60.0927ZM287.666 61.5692C287.872 61.2517 288.039 60.9917 288.167 60.7927L279.746 55.3986C279.63 55.5805 279.474 55.8232 279.279 56.1232L287.666 61.5692ZM285.473 64.8806C286.426 63.4652 287.162 62.3451 287.666 61.5694L279.279 56.123C278.803 56.8555 278.097 57.9297 277.177 59.2969L285.473 64.8806ZM277.274 76.5329C280.794 71.7258 283.569 67.7102 285.473 64.8806L277.177 59.2969C275.337 62.0313 272.638 65.9375 269.206 70.625L277.274 76.5329ZM248.088 111.847C260.187 98.9669 270.247 86.1296 277.274 76.5329L269.206 70.625C262.341 80 252.541 92.5 240.8 105L248.088 111.847ZM206.138 147.795C221.708 137.818 236.025 124.689 248.088 111.847L240.8 105C229.058 117.5 215.374 130 200.743 139.375L206.138 147.795ZM204.716 148.695C205.191 148.398 205.666 148.098 206.138 147.795L200.743 139.375C200.301 139.658 199.858 139.939 199.414 140.216L204.716 148.695ZM198.678 148.134C218.429 166.316 237.774 185.706 252.636 201.048L259.818 194.09C244.884 178.674 225.393 159.135 205.451 140.777L198.678 148.134ZM252.636 201.048C260.842 209.519 267.683 216.757 272.473 221.877L279.776 215.046C274.954 209.891 268.072 202.61 259.818 194.09L252.636 201.048ZM272.473 221.877C274.868 224.437 276.749 226.468 278.032 227.859L285.382 221.078C284.085 219.671 282.187 217.624 279.776 215.046L272.473 221.877ZM278.032 227.859C278.674 228.554 279.166 229.089 279.498 229.451L286.868 222.692C286.529 222.323 286.031 221.781 285.382 221.078L278.032 227.859ZM279.498 229.451C279.663 229.632 279.789 229.769 279.873 229.861L287.253 223.113C287.166 223.017 287.037 222.877 286.868 222.692L279.498 229.451ZM279.872 229.86L279.97 229.967L287.351 223.221L287.254 223.114L279.872 229.86ZM279.968 229.965L279.993 229.992L287.378 223.25L287.353 223.223L279.968 229.965ZM279.994 229.993L280 230L287.384 223.256L287.377 223.249L279.994 229.993ZM280.003 230.003L280.005 230.005L287.383 223.256L287.381 223.254L280.003 230.003ZM279.945 229.938C280.026 230.031 279.295 229.294 278.93 228.148C278.515 226.846 278.727 225.714 278.955 225.037C279.157 224.434 279.429 224.013 279.538 223.851C279.67 223.653 279.789 223.506 279.851 223.432C279.973 223.285 280.078 223.177 280.107 223.147C280.15 223.103 280.184 223.069 280.201 223.053C280.235 223.019 280.262 222.994 280.268 222.988C280.278 222.979 280.286 222.972 280.288 222.97C280.294 222.964 280.291 222.967 280.261 222.995C280.206 223.045 280.094 223.147 279.863 223.358C279.402 223.779 278.479 224.621 276.631 226.305L283.369 233.695C285.216 232.01 286.14 231.167 286.603 230.746C286.833 230.535 286.951 230.427 287.012 230.372C287.039 230.347 287.065 230.323 287.085 230.304C287.091 230.299 287.102 230.289 287.114 230.278C287.122 230.27 287.15 230.244 287.185 230.21C287.202 230.193 287.237 230.159 287.281 230.114C287.31 230.084 287.414 229.976 287.537 229.829C287.599 229.755 287.718 229.608 287.85 229.41C287.959 229.248 288.231 228.826 288.433 228.224C288.661 227.546 288.873 226.414 288.458 225.113C288.093 223.967 287.362 223.23 287.443 223.322L279.945 229.938ZM276.631 226.305L274.463 228.282L281.201 235.672L283.369 233.695L276.631 226.305ZM274.463 228.282C273.7 228.978 273.318 229.326 273.128 229.5C273.032 229.587 272.986 229.629 272.964 229.649C272.951 229.661 272.953 229.659 272.959 229.654C272.961 229.652 272.966 229.647 272.973 229.641C272.978 229.637 272.997 229.62 273.021 229.599C273.033 229.588 273.058 229.567 273.09 229.54C273.111 229.522 273.19 229.455 273.296 229.375C273.349 229.336 273.457 229.256 273.6 229.164C273.703 229.097 274.036 228.885 274.506 228.704C274.899 228.552 276.189 228.1 277.781 228.592C278.608 228.847 279.228 229.272 279.653 229.655C279.801 229.794 280.012 230.013 280.08 230.089C280.145 230.166 280.209 230.245 280.21 230.245L272.401 236.492C272.401 236.492 272.465 236.571 272.531 236.648C272.598 236.724 272.809 236.944 272.957 237.082C273.382 237.466 274.002 237.89 274.829 238.146C276.422 238.638 277.712 238.185 278.105 238.034C278.574 237.853 278.907 237.64 279.011 237.573C279.154 237.481 279.262 237.401 279.314 237.362C279.42 237.282 279.5 237.215 279.521 237.198C279.553 237.17 279.578 237.149 279.591 237.138C279.615 237.117 279.634 237.099 279.64 237.095C279.648 237.087 279.654 237.081 279.658 237.078C279.67 237.068 279.683 237.055 279.694 237.045C279.72 237.022 279.769 236.977 279.864 236.89C280.056 236.716 280.438 236.368 281.201 235.672L274.463 228.282ZM279.986 229.984L279.985 229.983L272.624 236.752L272.625 236.753L279.986 229.984ZM279.993 229.992L279.987 229.986L272.61 236.737L272.616 236.743L279.993 229.992ZM279.992 229.991L279.969 229.966L272.582 236.707L272.605 236.732L279.992 229.991ZM279.967 229.964L279.874 229.862L272.492 236.608L272.585 236.709L279.967 229.964ZM279.872 229.86L279.761 229.738L272.383 236.489L272.494 236.61L279.872 229.86ZM279.76 229.737C279.688 229.659 279.601 229.563 279.497 229.451L272.127 236.21C272.228 236.32 272.314 236.413 272.384 236.49L279.76 229.737ZM279.498 229.451C279.166 229.089 278.674 228.554 278.033 227.859L270.683 234.64C271.317 235.328 271.802 235.855 272.127 236.21L279.498 229.451ZM278.033 227.859C276.749 226.468 274.868 224.437 272.473 221.877L265.17 228.708C267.548 231.251 269.414 233.265 270.683 234.64L278.033 227.859ZM272.473 221.877C267.683 216.757 260.842 209.519 252.636 201.048L245.453 208.005C253.613 216.428 260.413 223.623 265.17 228.708L272.473 221.877ZM252.636 201.048C237.18 185.093 216.885 164.769 196.332 145.982L189.585 153.363C209.931 171.961 230.071 192.127 245.453 208.005L252.636 201.048ZM155 165C169.054 165 182.678 160.646 195.263 154.109L190.653 145.235C179.02 151.278 166.99 155 155 155V165ZM114.737 154.109C127.322 160.646 140.946 165 155 165V155C143.01 155 130.98 151.278 119.347 145.235L114.737 154.109ZM113.668 145.982C93.1153 164.769 72.8202 185.093 57.3646 201.048L64.547 208.005C79.9289 192.127 100.069 171.961 120.415 153.363L113.668 145.982ZM57.3646 201.048C49.158 209.519 42.3169 216.757 37.5274 221.877L44.8305 228.708C49.5873 223.623 56.3877 216.428 64.547 208.005L57.3646 201.048ZM37.5274 221.877C35.1327 224.437 33.2508 226.468 31.9677 227.859L39.3172 234.64C40.5861 233.265 42.4524 231.251 44.8305 228.708L37.5274 221.877ZM31.9677 227.859C31.3262 228.554 30.8342 229.089 30.5027 229.451L37.8729 236.21C38.1977 235.855 38.6827 235.328 39.3172 234.64L31.9677 227.859ZM30.5027 229.451C30.3368 229.632 30.2113 229.769 30.1273 229.861L37.5067 236.609C37.588 236.521 37.7105 236.387 37.8729 236.21L30.5027 229.451ZM30.126 229.862L30.0333 229.964L37.4153 236.709L37.508 236.608L30.126 229.862ZM30.0319 229.965L30.0091 229.99L37.394 236.733L37.4167 236.708L30.0319 229.965ZM30.0083 229.991L30.0029 229.997L37.3894 236.738L37.3948 236.732L30.0083 229.991ZM29.9945 230.006L29.9933 230.008L37.3966 236.73L37.3978 236.729L29.9945 230.006ZM30.031 229.967C29.9642 230.038 30.3833 229.549 31.0154 229.147C31.8024 228.648 32.7097 228.38 33.6338 228.369C34.4387 228.359 35.0616 228.546 35.3931 228.666C35.7403 228.791 36.0015 228.93 36.1426 229.009C36.4171 229.163 36.6151 229.31 36.6728 229.352C36.7559 229.414 36.8195 229.465 36.8503 229.49C36.9126 229.541 36.96 229.582 36.9725 229.593C36.9916 229.609 37.0065 229.623 37.0134 229.629C37.0276 229.641 37.0382 229.651 37.0401 229.653C37.042 229.654 37.0435 229.656 37.0443 229.656C37.0451 229.657 37.0456 229.658 37.0457 229.658C37.0458 229.658 37.0451 229.657 37.0431 229.655C37.0413 229.654 37.0387 229.651 37.0352 229.648C37.0281 229.642 37.018 229.633 37.0039 229.62C36.9473 229.568 36.8328 229.464 36.6016 229.253C36.1399 228.832 35.2164 227.99 33.369 226.305L26.6312 233.695C28.4784 235.379 29.4022 236.221 29.8642 236.643C30.0949 236.853 30.2114 236.959 30.2702 237.013C30.2983 237.038 30.3172 237.056 30.3296 237.067C30.3303 237.067 30.3511 237.086 30.3745 237.107C30.3819 237.114 30.3972 237.127 30.4166 237.144C30.4293 237.155 30.4769 237.196 30.5393 237.247C30.5701 237.272 30.6338 237.324 30.717 237.385C30.7747 237.428 30.9727 237.575 31.2473 237.729C31.3255 237.773 32.3314 238.386 33.7561 238.368C34.6802 238.357 35.5874 238.09 36.3744 237.59C37.0066 237.189 37.4257 236.699 37.3589 236.771L30.031 229.967ZM33.369 226.305C31.5216 224.621 30.5986 223.779 30.1376 223.358C29.9063 223.147 29.7937 223.045 29.7393 222.995C29.7088 222.967 29.7061 222.964 29.7126 222.97C29.7152 222.973 29.7229 222.98 29.7334 222.99C29.7399 222.996 29.7675 223.022 29.8025 223.056C29.8197 223.073 29.8556 223.108 29.8999 223.154C29.9296 223.185 30.0375 223.296 30.1639 223.449C30.2272 223.526 30.3501 223.679 30.486 223.886C30.5973 224.056 30.8776 224.499 31.0765 225.132C31.3037 225.855 31.4802 227.02 31.0104 228.325C30.7969 228.917 30.5112 229.36 30.2931 229.648C30.2109 229.753 30.0823 229.908 30.038 229.958C29.993 230.008 29.9473 230.057 29.9473 230.057L22.6653 223.203C22.6652 223.203 22.6195 223.253 22.5746 223.302C22.5302 223.353 22.4016 223.507 22.3194 223.613C22.1013 223.901 21.8156 224.343 21.6021 224.936C21.1323 226.24 21.3088 227.405 21.536 228.129C21.735 228.762 22.0152 229.205 22.1266 229.374C22.2625 229.581 22.3855 229.735 22.4488 229.812C22.5752 229.965 22.6833 230.076 22.7132 230.107C22.7578 230.154 22.794 230.189 22.8117 230.206C22.8476 230.241 22.8764 230.269 22.8849 230.277C22.8974 230.288 22.9078 230.298 22.914 230.304C22.9348 230.323 22.9609 230.347 22.988 230.372C23.0488 230.427 23.167 230.535 23.3974 230.746C23.8598 231.167 24.784 232.01 26.6312 233.695L33.369 226.305ZM30.0099 229.989L30.0116 229.987L22.6044 223.269L22.6027 223.271L30.0099 229.989ZM30.0039 229.996L30.0104 229.989L22.6188 223.253L22.6122 223.261L30.0039 229.996ZM30.0074 229.992L30.0325 229.965L22.6469 223.223L22.6218 223.25L30.0074 229.992ZM30.0304 229.967L30.1278 229.86L22.7465 223.114L22.649 223.22L30.0304 229.967ZM30.1272 229.861C30.2114 229.769 30.337 229.632 30.5028 229.451L23.1325 222.692C22.9635 222.876 22.8346 223.017 22.7471 223.113L30.1272 229.861ZM30.5026 229.451C30.8342 229.089 31.3261 228.554 31.9677 227.859L24.6182 221.078C23.9695 221.781 23.4707 222.323 23.1327 222.692L30.5026 229.451ZM31.9677 227.859C33.2508 226.468 35.1327 224.437 37.5274 221.877L30.2243 215.046C27.8129 217.624 25.9156 219.671 24.6182 221.078L31.9677 227.859ZM37.5274 221.877C42.3169 216.757 49.158 209.519 57.3646 201.048L50.1822 194.09C41.9283 202.61 35.0465 209.891 30.2243 215.046L37.5274 221.877ZM57.3646 201.048C72.2263 185.706 91.5715 166.316 111.322 148.135L104.549 140.777C84.6067 159.135 65.1165 178.674 50.1822 194.09L57.3646 201.048ZM103.862 147.795C104.334 148.098 104.809 148.398 105.285 148.695L110.586 140.216C110.142 139.939 109.699 139.658 109.257 139.375L103.862 147.795ZM61.9118 111.847C73.9753 124.689 88.2916 137.818 103.862 147.795L109.257 139.375C94.6256 130 80.9422 117.5 69.2005 105L61.9118 111.847ZM32.7257 76.5329C39.7527 86.1296 49.8134 98.9669 61.9118 111.847L69.2005 105C57.4587 92.5 47.6586 80 40.7939 70.625L32.7257 76.5329ZM24.5268 64.8806C26.4313 67.7102 29.2058 71.7258 32.7257 76.5329L40.7939 70.625C37.3616 65.9375 34.6631 62.0313 32.8227 59.2969L24.5268 64.8806ZM22.3344 61.5694C22.8382 62.3451 23.5742 63.4652 24.5268 64.8806L32.8227 59.2969C31.9025 57.9297 31.1968 56.8555 30.7212 56.1231L22.3344 61.5694ZM21.8333 60.7927C21.9607 60.9916 22.1281 61.2517 22.3344 61.5693L30.7212 56.1231C30.5265 55.8232 30.3703 55.5806 30.2537 55.3986L21.8333 60.7927ZM20 142.5C20 102.846 23.1673 77.216 30.6274 60.0927L21.4596 56.0986C13.1051 75.2753 10 102.738 10 142.5H20ZM43.2609 243.161C35.087 235.669 29.2472 225.025 25.4613 208.892C21.656 192.675 20 171.23 20 142.5H10C10 171.469 11.655 193.828 15.7258 211.176C19.816 228.607 26.4172 241.287 36.5036 250.533L43.2609 243.161ZM81.7375 259.914C63.3793 256.284 51.46 250.677 43.2609 243.161L36.5036 250.533C46.528 259.722 60.3966 265.888 79.7979 269.724L81.7375 259.914ZM155 265C124.019 265 100.194 263.563 81.7375 259.914L79.7979 269.724C99.2316 273.566 123.84 275 155 275V265ZM228.263 259.914C209.806 263.563 185.981 265 155 265V275C186.16 275 210.768 273.566 230.202 269.724L228.263 259.914ZM266.739 243.161C258.54 250.677 246.621 256.284 228.263 259.914L230.202 269.724C249.603 265.888 263.472 259.722 273.496 250.533L266.739 243.161ZM288.143 55.201C284.37 46.823 279.547 40.0133 273.496 34.467L266.739 41.8386C271.685 46.3723 275.748 52.0307 279.025 59.3071L288.143 55.201ZM277.339 59.233C279.307 60.4701 280.358 61.1314 280.919 61.4848L286.248 53.0233C285.683 52.6673 284.629 52.004 282.661 50.767L277.339 59.233ZM271.79 49.3079C271.789 49.309 271.65 49.5017 271.52 49.6996C271.401 49.9015 271.11 50.5192 270.966 50.9444C270.597 52.216 270.794 53.3779 271.133 54.2144C271.418 54.9186 271.797 55.387 271.958 55.5767C272.148 55.8001 272.318 55.9597 272.407 56.04C272.583 56.2 272.732 56.3115 272.774 56.3433C272.837 56.39 272.887 56.4254 272.912 56.4428C272.963 56.4781 273.003 56.5047 273.015 56.5125C273.032 56.5238 273.046 56.5327 273.053 56.5373C273.076 56.552 273.096 56.5648 273.099 56.5664C273.113 56.5756 273.135 56.5892 273.168 56.6099C273.236 56.6528 273.369 56.737 273.634 56.9034C274.164 57.2366 275.222 57.9024 277.339 59.233L282.661 50.767C280.545 49.4365 279.487 48.7714 278.959 48.439C278.694 48.2726 278.564 48.1903 278.499 48.1499C278.484 48.1399 278.472 48.1327 278.464 48.1278C278.46 48.1253 278.458 48.1235 278.455 48.1222C278.453 48.1209 278.453 48.1203 278.453 48.1204C278.453 48.1205 278.453 48.1208 278.454 48.1213C278.455 48.1218 278.456 48.1228 278.458 48.124C278.46 48.1254 278.471 48.1318 278.484 48.1404C278.49 48.1446 278.504 48.1533 278.521 48.1644C278.532 48.172 278.572 48.1985 278.623 48.2337C278.648 48.251 278.698 48.2864 278.761 48.3331C278.803 48.3648 278.952 48.4763 279.128 48.6363C279.217 48.7166 279.387 48.8761 279.577 49.0996C279.738 49.2893 280.117 49.7576 280.402 50.4619C280.741 51.2984 280.938 52.4603 280.569 53.7319C280.425 54.157 280.134 54.7748 280.015 54.9766C279.885 55.1745 279.746 55.3672 279.745 55.3683L271.79 49.3079ZM279.976 55.0373L279.977 55.0357L271.558 49.6405L271.557 49.6421L279.976 55.0373ZM279.991 55.0142L279.997 55.0043L271.536 49.6751L271.529 49.6851L279.991 55.0142ZM279.957 55.0687L279.986 55.0219L271.534 49.6773L271.505 49.7241L279.957 55.0687ZM279.818 55.2869C279.878 55.1924 279.923 55.1211 279.954 55.0736L271.508 49.7192C271.483 49.7578 271.444 49.8197 271.39 49.9041L279.818 55.2869ZM279.279 56.1231C279.517 55.7567 279.697 55.4759 279.818 55.2868L271.39 49.9041C271.282 50.0729 271.116 50.3324 270.892 50.6767L279.279 56.1231ZM277.177 59.2969C278.097 57.9297 278.803 56.8555 279.279 56.123L270.892 50.6768C270.445 51.3658 269.769 52.3942 268.881 53.7132L277.177 59.2969ZM269.206 70.625C272.638 65.9375 275.337 62.0313 277.177 59.2969L268.881 53.7132C267.105 56.3523 264.483 60.1492 261.138 64.7172L269.206 70.625ZM240.8 105C252.541 92.5 262.341 80 269.206 70.625L261.138 64.7172C254.435 73.8705 244.896 86.0332 233.511 98.1535L240.8 105ZM200.743 139.375C215.374 130 229.058 117.5 240.8 105L233.511 98.1535C222.091 110.311 209.04 122.182 195.348 130.955L200.743 139.375ZM155 155C170.533 155 186.112 148.75 200.743 139.375L195.348 130.955C181.586 139.773 167.898 145 155 145V155ZM109.257 139.375C123.888 148.75 139.467 155 155 155V145C142.102 145 128.414 139.773 114.652 130.955L109.257 139.375ZM69.2005 105C80.9422 117.5 94.6256 130 109.257 139.375L114.652 130.955C100.96 122.182 87.9093 110.311 76.4892 98.1535L69.2005 105ZM40.7939 70.625C47.6586 80 57.4587 92.5 69.2005 105L76.4892 98.1535C65.1041 86.0332 55.5646 73.8705 48.8622 64.7172L40.7939 70.625ZM32.8227 59.2969C34.6631 62.0313 37.3616 65.9375 40.7939 70.625L48.8622 64.7172C45.5174 60.1492 42.8949 56.3523 41.1187 53.7132L32.8227 59.2969ZM30.7212 56.1231C31.1968 56.8555 31.9025 57.9297 32.8227 59.2969L41.1187 53.7132C40.2309 52.3942 39.5555 51.3659 39.108 50.6768L30.7212 56.1231ZM30.1823 55.2869C30.3031 55.4761 30.4834 55.7568 30.7212 56.1231L39.108 50.6768C38.8843 50.3323 38.7176 50.0727 38.6099 49.9041L30.1823 55.2869ZM30.0458 55.0726C30.0763 55.1206 30.1218 55.1923 30.1822 55.2869L38.6099 49.9041C38.5561 49.8198 38.517 49.7583 38.4929 49.7202L30.0458 55.0726ZM30.0141 55.0223L30.0436 55.0691L38.4951 49.7237L38.4655 49.677L30.0141 55.0223ZM30.0042 55.0066L30.0104 55.0165L38.4692 49.6827L38.4629 49.6728L30.0042 55.0066ZM30.0018 55.0029L30.0028 55.0044L38.4643 49.675L38.4633 49.6734L30.0018 55.0029ZM32.6612 59.233C34.7777 57.9024 35.8364 57.2366 36.3661 56.9034C36.6306 56.737 36.7644 56.6528 36.8324 56.6099C36.8652 56.5893 36.8866 56.5757 36.9008 56.5667C36.9035 56.565 36.9228 56.5528 36.9446 56.5388C36.9513 56.5344 36.9643 56.526 36.9806 56.5153C36.9918 56.5079 37.0297 56.4829 37.0775 56.4499C37.1011 56.4335 37.1483 56.4006 37.2068 56.3573C37.2473 56.3273 37.3849 56.2253 37.5489 56.08C37.6316 56.0067 37.7875 55.8641 37.9642 55.666C38.115 55.4969 38.4624 55.0889 38.752 54.477C39.0855 53.7723 39.3787 52.7109 39.1544 51.4574C38.9619 50.3819 38.425 49.6113 38.4839 49.7064L29.9812 54.9699C30.0401 55.065 29.5032 54.2943 29.3107 53.2188C29.0864 51.9654 29.3796 50.904 29.7131 50.1993C30.0027 49.5874 30.3501 49.1794 30.5009 49.0103C30.6776 48.8122 30.8335 48.6696 30.9161 48.5963C31.0801 48.451 31.2177 48.349 31.2582 48.319C31.3166 48.2758 31.3638 48.2429 31.3874 48.2266C31.435 48.1936 31.4727 48.1688 31.4837 48.1616C31.4996 48.1511 31.5123 48.1429 31.5185 48.1389C31.5311 48.1307 31.5406 48.1247 31.5426 48.1234C31.5444 48.1222 31.5458 48.1214 31.5465 48.1209C31.5473 48.1204 31.5478 48.1201 31.5478 48.1201C31.5478 48.1201 31.5469 48.1207 31.5448 48.122C31.5427 48.1233 31.5398 48.1251 31.5359 48.1276C31.5279 48.1327 31.5166 48.1398 31.5007 48.1498C31.4365 48.1903 31.3058 48.2726 31.0413 48.439C30.5129 48.7714 29.4553 49.4365 27.3388 50.767L32.6612 59.233ZM29.081 61.4849C29.6422 61.1314 30.6933 60.4701 32.6612 59.233L27.3388 50.767C25.3713 52.004 24.3168 52.6673 23.7515 53.0233L29.081 61.4849ZM36.5036 34.467C30.4532 40.0133 25.6301 46.823 21.8572 55.201L30.9753 59.3072C34.2521 52.0307 38.315 46.3723 43.2609 41.8386L36.5036 34.467ZM79.7979 15.2761C60.3966 19.112 46.528 25.278 36.5036 34.467L43.2609 41.8386C51.46 34.3227 63.3793 28.7159 81.7375 25.0862L79.7979 15.2761ZM155 10C123.84 10 99.2316 11.4339 79.7979 15.2761L81.7375 25.0862C100.194 21.4371 124.019 20 155 20V10ZM230.202 15.2761C210.768 11.4339 186.16 10 155 10V20C185.981 20 209.806 21.4371 228.263 25.0862L230.202 15.2761ZM273.496 34.467C263.472 25.278 249.603 19.112 230.202 15.2761L228.263 25.0862C246.621 28.7159 258.54 34.3227 266.739 41.8386L273.496 34.467ZM300 142.5C300 199.995 293.564 232.138 273.496 250.533C263.472 259.722 249.603 265.888 230.202 269.724C210.769 273.566 186.16 275 155 275V285C186.34 285 211.731 283.569 232.142 279.534C252.585 275.492 268.403 268.767 280.254 257.905C303.936 236.196 310 199.588 310 142.5H300ZM155 10C186.16 10 210.769 11.4339 230.202 15.2761C249.603 19.1119 263.472 25.2778 273.496 34.467C293.564 52.8623 300 85.0046 300 142.5H310C310 85.4121 303.936 48.8044 280.254 27.0955C268.403 16.2326 252.585 9.50787 232.142 5.46605C211.731 1.43069 186.34 0 155 0V10ZM10 142.5C10 85.0046 16.436 52.8623 36.5036 34.467C46.5283 25.2778 60.3971 19.1119 79.7979 15.2761C99.2314 11.4339 123.84 10 155 10V0C123.66 0 98.2686 1.43069 77.8583 5.46605C57.4154 9.50787 41.5967 16.2326 29.7464 27.0955C6.06398 48.8044 0 85.4121 0 142.5H10ZM155 275C123.84 275 99.2314 273.566 79.7979 269.724C60.3971 265.888 46.5283 259.722 36.5036 250.533C16.436 232.138 10 199.995 10 142.5H0C0 199.588 6.06398 236.196 29.7464 257.905C41.5967 268.767 57.4154 275.492 77.8583 279.534C98.2686 283.569 123.66 285 155 285V275Z" fill="black"/>
</svg>
