<svg width="300" height="300" viewBox="0 0 300 300" fill="none" xmlns="http://www.w3.org/2000/svg">
<path d="M153.06 122.729V180.82H235.436C231.818 199.502 220.964 215.321 204.684 225.957L254.359 263.731C283.302 237.55 300 199.094 300 153.412C300 142.776 299.026 132.548 297.217 122.73L153.06 122.729Z" fill="#4285F4"/>
<path d="M67.2798 178.553L56.0761 186.958L16.4182 217.23C41.6039 266.185 93.2241 300.004 153.057 300.004C194.383 300.004 229.031 286.64 254.356 263.731L204.681 225.958C191.044 234.958 173.65 240.413 153.057 240.413C113.261 240.413 79.4491 214.095 67.3424 178.639L67.2798 178.553Z" fill="#34A853"/>
<path d="M16.4183 82.7734C5.98274 102.955 0 125.728 0 150.001C0 174.273 5.98274 197.047 16.4183 217.228C16.4183 217.363 67.3473 178.5 67.3473 178.5C64.2861 169.5 62.4767 159.955 62.4767 149.999C62.4767 140.043 64.2861 130.498 67.3473 121.498L16.4183 82.7734Z" fill="#FBBC05"/>
<path d="M153.06 59.7279C175.603 59.7279 195.64 67.3642 211.642 82.0918L255.473 39.1373C228.896 14.8647 194.388 0 153.06 0C93.2272 0 41.6039 33.6821 16.4182 82.7738L67.3457 121.502C79.4509 86.0462 113.264 59.7279 153.06 59.7279Z" fill="#EA4335"/>
</svg>
