<svg width="1364" height="253" viewBox="0 0 1364 253" fill="none" xmlns="http://www.w3.org/2000/svg">
<path d="M1228.5 138.5H739.5C708.02 138.5 682.5 164.02 682.5 195.5C682.5 226.98 708.02 252.5 739.5 252.5H1228.5C1259.98 252.5 1285.5 226.98 1285.5 195.5C1285.5 164.02 1259.98 138.5 1228.5 138.5Z" fill="#FFF1DA"/>
<path d="M467.5 0.5H412.5C381.02 0.5 355.5 26.0198 355.5 57.5C355.5 88.9802 381.02 114.5 412.5 114.5H467.5C498.98 114.5 524.5 88.9802 524.5 57.5C524.5 26.0198 498.98 0.5 467.5 0.5Z" fill="#FFF1DA"/>
<path d="M166.5 138.5H81.5C50.0198 138.5 24.5 164.02 24.5 195.5C24.5 226.98 50.0198 252.5 81.5 252.5H166.5C197.98 252.5 223.5 226.98 223.5 195.5C223.5 164.02 197.98 138.5 166.5 138.5Z" fill="#FFF1DA"/>
<path d="M36.5775 93.8235C40.8556 87.2638 46.2032 82.1301 52.6203 78.4225C59.0374 74.5722 66.1676 72.6471 74.0107 72.6471V111.364H63.9572C54.8307 111.364 47.9857 113.36 43.4225 117.353C38.8592 121.203 36.5775 128.048 36.5775 137.888V193.289H0V73.9305H36.5775V93.8235Z" fill="#DF6951"/>
<path d="M145.826 195C134.132 195 123.58 192.504 114.168 187.513C104.899 182.522 97.5546 175.392 92.1357 166.123C86.8594 156.854 84.2213 146.016 84.2213 133.61C84.2213 121.346 86.9307 110.579 92.3496 101.31C97.7685 91.8984 105.184 84.697 114.596 79.7059C124.007 74.7148 134.56 72.2192 146.253 72.2192C157.947 72.2192 168.499 74.7148 177.911 79.7059C187.323 84.697 194.738 91.8984 200.157 101.31C205.576 110.579 208.285 121.346 208.285 133.61C208.285 145.873 205.505 156.711 199.943 166.123C194.524 175.392 187.038 182.522 177.483 187.513C168.072 192.504 157.519 195 145.826 195ZM145.826 163.342C152.813 163.342 158.731 160.775 163.58 155.642C168.571 150.508 171.066 143.164 171.066 133.61C171.066 124.055 168.642 116.711 163.793 111.578C159.088 106.444 153.241 103.877 146.253 103.877C139.123 103.877 133.205 106.444 128.499 111.578C123.793 116.569 121.441 123.913 121.441 133.61C121.441 143.164 123.722 150.508 128.285 155.642C132.991 160.775 138.838 163.342 145.826 163.342Z" fill="#DF6951"/>
<path d="M220.418 133.396C220.418 121.132 222.699 110.365 227.263 101.096C231.969 91.8271 238.314 84.697 246.3 79.7059C254.286 74.7148 263.199 72.2192 273.038 72.2192C281.452 72.2192 288.796 73.9305 295.07 77.3529C301.487 80.7754 306.407 85.2674 309.83 90.8289V73.9305H346.407V193.289H309.83V176.39C306.264 181.952 301.273 186.444 294.856 189.866C288.582 193.289 281.238 195 272.824 195C263.127 195 254.286 192.504 246.3 187.513C238.314 182.38 231.969 175.178 227.263 165.909C222.699 156.497 220.418 145.66 220.418 133.396ZM309.83 133.61C309.83 124.483 307.263 117.282 302.129 112.005C297.138 106.729 291.006 104.091 283.733 104.091C276.461 104.091 270.257 106.729 265.124 112.005C260.133 117.139 257.637 124.269 257.637 133.396C257.637 142.522 260.133 149.795 265.124 155.214C270.257 160.49 276.461 163.128 283.733 163.128C291.006 163.128 297.138 160.49 302.129 155.214C307.263 149.938 309.83 142.736 309.83 133.61Z" fill="#DF6951"/>
<path d="M365.597 133.396C365.597 121.132 367.878 110.365 372.441 101.096C377.147 91.8271 383.493 84.697 391.479 79.7059C399.465 74.7148 408.377 72.2192 418.217 72.2192C426.06 72.2192 433.19 73.8592 439.607 77.139C446.167 80.4189 451.301 84.8396 455.008 90.4011V35H491.586V193.289H455.008V176.176C451.586 181.881 446.666 186.444 440.249 189.866C433.974 193.289 426.63 195 418.217 195C408.377 195 399.465 192.504 391.479 187.513C383.493 182.38 377.147 175.178 372.441 165.909C367.878 156.497 365.597 145.66 365.597 133.396ZM455.008 133.61C455.008 124.483 452.441 117.282 447.308 112.005C442.317 106.729 436.185 104.091 428.912 104.091C421.639 104.091 415.436 106.729 410.302 112.005C405.311 117.139 402.816 124.269 402.816 133.396C402.816 142.522 405.311 149.795 410.302 155.214C415.436 160.49 421.639 163.128 428.912 163.128C436.185 163.128 442.317 160.49 447.308 155.214C452.441 149.938 455.008 142.736 455.008 133.61Z" fill="#DF6951"/>
<path d="M572.406 159.064L598.289 73.9305H637.219L594.866 193.289H549.733L507.38 73.9305H546.524L572.406 159.064Z" fill="black"/>
<path d="M765.129 131.684C765.129 135.107 764.915 138.672 764.487 142.38H681.706C682.277 149.795 684.63 155.499 688.765 159.492C693.043 163.342 698.248 165.267 704.38 165.267C713.507 165.267 719.852 161.417 723.417 153.717H762.348C760.352 161.56 756.715 168.619 751.439 174.893C746.305 181.168 739.817 186.087 731.974 189.652C724.13 193.217 715.36 195 705.663 195C693.97 195 683.56 192.504 674.433 187.513C665.307 182.522 658.177 175.392 653.043 166.123C647.909 156.854 645.343 146.016 645.343 133.61C645.343 121.203 647.838 110.365 652.829 101.096C657.963 91.8271 665.093 84.697 674.22 79.7059C683.346 74.7148 693.827 72.2192 705.663 72.2192C717.214 72.2192 727.482 74.6435 736.466 79.492C745.45 84.3405 752.437 91.2567 757.428 100.241C762.562 109.225 765.129 119.706 765.129 131.684ZM727.695 122.059C727.695 115.784 725.556 110.793 721.278 107.086C717 103.378 711.653 101.524 705.236 101.524C699.104 101.524 693.899 103.307 689.621 106.872C685.485 110.437 682.918 115.499 681.92 122.059H727.695Z" fill="black"/>
<path d="M857.152 72.6471C871.127 72.6471 882.25 77.2103 890.521 86.3369C898.935 95.3209 903.142 107.727 903.142 123.556V193.289H866.778V128.476C866.778 120.49 864.71 114.287 860.575 109.866C856.439 105.446 850.878 103.235 843.89 103.235C836.903 103.235 831.341 105.446 827.206 109.866C823.07 114.287 821.003 120.49 821.003 128.476V193.289H784.425V73.9305H821.003V89.7594C824.71 84.4831 829.701 80.3476 835.976 77.3529C842.25 74.2157 849.309 72.6471 857.152 72.6471Z" fill="black"/>
<path d="M995.083 162.273V193.289H976.474C963.212 193.289 952.873 190.08 945.458 183.663C938.043 177.103 934.335 166.48 934.335 151.791V104.305H919.789V73.9305H934.335V44.8396H970.912V73.9305H994.87V104.305H970.912V152.219C970.912 155.784 971.768 158.351 973.479 159.92C975.19 161.488 978.042 162.273 982.035 162.273H995.083Z" fill="black"/>
<path d="M1133.32 73.9305V193.289H1096.74V177.032C1093.03 182.308 1087.97 186.586 1081.55 189.866C1075.28 193.004 1068.29 194.572 1060.59 194.572C1051.46 194.572 1043.41 192.576 1036.42 188.583C1029.43 184.447 1024.01 178.529 1020.16 170.829C1016.31 163.128 1014.39 154.073 1014.39 143.663V73.9305H1050.75V138.743C1050.75 146.729 1052.82 152.932 1056.96 157.353C1061.09 161.774 1066.65 163.984 1073.64 163.984C1080.77 163.984 1086.4 161.774 1090.54 157.353C1094.67 152.932 1096.74 146.729 1096.74 138.743V73.9305H1133.32Z" fill="black"/>
<path d="M1196.17 93.8235C1200.45 87.2638 1205.8 82.1301 1212.21 78.4225C1218.63 74.5722 1225.76 72.6471 1233.6 72.6471V111.364H1223.55C1214.42 111.364 1207.58 113.36 1203.01 117.353C1198.45 121.203 1196.17 128.048 1196.17 137.888V193.289H1159.59V73.9305H1196.17V93.8235Z" fill="black"/>
<path d="M1363.6 131.684C1363.6 135.107 1363.39 138.672 1362.96 142.38H1280.18C1280.75 149.795 1283.1 155.499 1287.24 159.492C1291.51 163.342 1296.72 165.267 1302.85 165.267C1311.98 165.267 1318.32 161.417 1321.89 153.717H1360.82C1358.82 161.56 1355.19 168.619 1349.91 174.893C1344.78 181.168 1338.29 186.087 1330.44 189.652C1322.6 193.217 1313.83 195 1304.13 195C1292.44 195 1282.03 192.504 1272.9 187.513C1263.78 182.522 1256.65 175.392 1251.51 166.123C1246.38 156.854 1243.81 146.016 1243.81 133.61C1243.81 121.203 1246.31 110.365 1251.3 101.096C1256.43 91.8271 1263.56 84.697 1272.69 79.7059C1281.82 74.7148 1292.3 72.2192 1304.13 72.2192C1315.69 72.2192 1325.95 74.6435 1334.94 79.492C1343.92 84.3405 1350.91 91.2567 1355.9 100.241C1361.03 109.225 1363.6 119.706 1363.6 131.684ZM1326.17 122.059C1326.17 115.784 1324.03 110.793 1319.75 107.086C1315.47 103.378 1310.12 101.524 1303.71 101.524C1297.57 101.524 1292.37 103.307 1288.09 106.872C1283.96 110.437 1281.39 115.499 1280.39 122.059H1326.17Z" fill="black"/>
</svg>
